<?xml version="1.0" encoding="UTF-8" standalone="no"?>
<svg
   xmlns:dc="http://purl.org/dc/elements/1.1/"
   xmlns:cc="http://creativecommons.org/ns#"
   xmlns:rdf="http://www.w3.org/1999/02/22-rdf-syntax-ns#"
   xmlns:svg="http://www.w3.org/2000/svg"
   xmlns="http://www.w3.org/2000/svg"
   version="1.1"
   id="svg2"
   xml:space="preserve"
   width="287.90668"
   height="249.06667"
   viewBox="0 0 287.90668 249.06667"><metadata
     id="metadata8"><rdf:RDF><cc:Work
         rdf:about=""><dc:format>image/svg+xml</dc:format><dc:type
           rdf:resource="http://purl.org/dc/dcmitype/StillImage" /></cc:Work></rdf:RDF></metadata><defs
     id="defs6" /><g
     id="g10"
     transform="matrix(1.3333333,0,0,-1.3333333,0,249.06667)"><g
       id="g12"
       transform="scale(0.1)"><path
         d="m 2068.85,1867.99 h -332.91 l -19.98,-0.18 c -61.48,1.05 -83.77,-21.9 -102.23,-50.18 l -261.58,-387.69 -250.26,379.88 -8.35,12.46 c 0,0 -6.86,11.15 -18.87,11.49 v 0.02 c -0.02,0 -0.04,-0.01 -0.04,-0.01 0,0 -0.03,0.01 -0.04,0.01 v -0.02 c -12.01,-0.34 -18.87,-11.49 -18.87,-11.49 l -8.36,-12.46 -242.087,-379.88 -269.75,387.69 c -18.437,28.28 -40.726,51.23 -102.222,50.18 l -19.988,0.18 H 80.4141 L 80.3125,1551.48 H 276.363 c 41.27,0.41 60.43,-1.54 88.739,-35.52 l 11.738,-17.24 395.609,-619.814 c 0,0 12.883,-19.976 34.735,-20.086 23.578,-0.101 36.648,20.188 36.648,20.188 l 230.758,345.742 v -0.01 l 0.04,0.06 0.04,-0.06 v 0.01 l 239.59,-345.305 c 0,0 13.53,-20.465 33.86,-20.957 21.85,-0.539 33.89,20.481 33.89,20.481 l 390.41,619.751 11.74,17.24 c 20.18,31.69 45.76,35.01 87.03,34.59 l 197.66,0.93 v 316.51"
         style="fill:#edac09;fill-opacity:1;fill-rule:nonzero;stroke:none"
         id="path14" /><path
         d="M 1566.86,981.309 1353.46,642.91 1078.71,1041.59 867.063,730.289 1313.07,30.5313 c 15.39,-26.30083 27.59,-30.222706 33.88,-30.50005 13.47,-0.589844 21.25,6.62891 35.93,31.08985 L 1733.09,670.18 c 31.16,55.441 83.18,54.73 83.18,54.73 h 252.58 v 316.12 h -394.28 c -71.8,0 -107.71,-59.721 -107.71,-59.721"
         style="fill:#edac09;fill-opacity:1;fill-rule:nonzero;stroke:none"
         id="path16" /><path
         d="m 1505.8,49.0313 c 7.32,0 14.53,0.2304 14.53,8.4375 0,6.7617 -5.63,8.332 -11.48,8.332 h -10.92 V 49.0313 Z m -7.87,-26.5508 h -5.96 v 48.3906 h 18.57 c 10.91,0 15.75,-4.7305 15.75,-13.4023 0,-8.5391 -5.64,-12.3672 -12.15,-13.4883 l 14.4,-21.5 h -6.98 l -13.61,21.5 h -10.02 z m -26.1,24.1992 c 0,-20.0391 15.06,-35.8984 35.33,-35.8984 20.26,0 35.32,15.8593 35.32,35.8984 0,20.0195 -15.06,35.8906 -35.32,35.8906 -20.27,0 -35.33,-15.8711 -35.33,-35.8906 m 77.18,0 c 0,-23.5195 -18.23,-41.87111 -41.85,-41.87111 -23.63,0 -41.87,18.35161 -41.87,41.87111 0,23.5117 18.24,41.8516 41.87,41.8516 23.62,0 41.85,-18.3399 41.85,-41.8516"
         style="fill:#edac09;fill-opacity:1;fill-rule:nonzero;stroke:none"
         id="path18" /></g></g></svg>
